<svg width="40" height="40" viewBox="0 0 40 40" fill="none" xmlns="http://www.w3.org/2000/svg">
<path d="M19.1667 20C19.1667 21.9891 19.9568 23.8968 21.3634 25.3033C22.7699 26.7098 24.6775 27.5 26.6667 27.5C28.6558 27.5 30.5634 26.7098 31.97 25.3033C33.3765 23.8968 34.1667 21.9891 34.1667 20C34.1667 18.0109 33.3765 16.1032 31.97 14.6967C30.5634 13.2902 28.6558 12.5 26.6667 12.5C24.6775 12.5 22.7699 13.2902 21.3634 14.6967C19.9568 16.1032 19.1667 18.0109 19.1667 20Z" fill="#B2EBF2"/>
<path d="M26.6667 10C21.1667 10 16.6667 14.5 16.6667 20C16.6667 25.5 21.1667 30 26.6667 30C32.1667 30 36.6667 25.5 36.6667 20C36.6667 14.5 32.1667 10 26.6667 10ZM26.6667 26.6667C23 26.6667 20 23.6667 20 20C20 16.3333 23 13.3333 26.6667 13.3333C30.3333 13.3333 33.3333 16.3333 33.3333 20C33.3333 23.6667 30.3333 26.6667 26.6667 26.6667Z" fill="#4DD0E1"/>
<path d="M21.1667 18.3333L16.5 4.25L11.3333 23.0833L9.50001 18.3333H3.33334V21.6667H7.16668L12 33.5833L16.8333 15.75L18.8333 21.6667H25V18.3333H21.1667Z" fill="#3F51B5"/>
<path d="M23.3333 20C23.3333 20.884 23.6845 21.7319 24.3097 22.357C24.9348 22.9821 25.7826 23.3333 26.6667 23.3333C27.5507 23.3333 28.3986 22.9821 29.0237 22.357C29.6488 21.7319 30 20.884 30 20C30 19.1159 29.6488 18.2681 29.0237 17.643C28.3986 17.0178 27.5507 16.6667 26.6667 16.6667C25.7826 16.6667 24.9348 17.0178 24.3097 17.643C23.6845 18.2681 23.3333 19.1159 23.3333 20Z" fill="#3F51B5"/>
</svg>
